<?xml version="1.0" encoding="UTF-8" standalone="no"?>
<!DOCTYPE svg PUBLIC "-//W3C//DTD SVG 1.1//EN" "http://www.w3.org/Graphics/SVG/1.1/DTD/svg11.dtd">
<svg width="100%" height="100%" viewBox="0 0 600 800" version="1.1" xmlns="http://www.w3.org/2000/svg" xmlns:xlink="http://www.w3.org/1999/xlink" xml:space="preserve" xmlns:serif="http://www.serif.com/" style="fill-rule:evenodd;clip-rule:evenodd;stroke-linejoin:round;stroke-miterlimit:2;">
    <g id="レイヤー6" transform="matrix(1.28201,0,0,1.28201,-80.6452,-264.782)">
        <g transform="matrix(1.11864,0,0,1.57886,-49.9543,-369.396)">
            <path d="M437.606,823.592C419.377,855.068 234.506,864.503 234.506,754.629C234.506,644.755 239.04,448.099 281.634,427.592C426.953,357.626 442.683,551.264 435.365,723.821" style="fill:rgb(101,55,38);"/>
        </g>
        <g transform="matrix(1.04313,0,0,1.47228,-24.5773,-302.383)">
            <path d="M437.606,823.592C419.377,855.068 234.506,864.503 234.506,754.629C234.506,644.755 239.04,448.099 281.634,427.592C426.953,357.626 442.683,551.264 435.365,723.821" style="fill:white;"/>
        </g>
        <g transform="matrix(0.780026,0,0,0.780026,62.9053,206.537)">
            <path d="M461.416,366.328C473.096,469.878 473.645,594.484 470.061,713.754L470.31,729.382C451.929,708.471 433.462,676.629 426.782,674.355C415.321,670.453 408.26,666.043 404.503,661.288C400.216,660.205 396.592,658.202 393.812,655.217C384.799,645.542 391.652,617.068 398.406,592.712C395.699,591.565 393.341,589.957 391.396,587.869C375.724,571.046 408.023,497.383 404.368,487.335C404.034,486.418 403.721,485.52 403.43,484.65C388.633,467.578 405.777,431.146 435.928,405.208C451.272,392.007 458.189,378.794 461.416,366.328Z" style="fill:rgb(209,209,209);"/>
        </g>
    </g>
    <g id="レイヤー2" transform="matrix(1.28201,0,0,1.28201,-80.6452,-264.782)">
        <g transform="matrix(1.18125,0,0,1.01446,-47.3119,-4.64358)">
            <path d="M229.635,221.866C230.805,217.593 259.08,250.633 265.122,270.094C273.326,296.519 252.37,321.18 241.702,321.18C231.035,321.18 224.183,326.424 221.556,298.912C219.94,281.985 224.354,241.145 229.635,221.866Z" style="fill:rgb(101,55,38);"/>
        </g>
        <g transform="matrix(0.780026,0,0,0.780026,62.9053,206.537)">
            <path d="M211.834,33.678C213.171,29.486 245.472,61.901 252.374,80.994C261.746,106.92 237.807,131.114 225.62,131.114C213.433,131.114 205.605,136.259 202.605,109.267C200.758,92.66 205.801,52.593 211.834,33.678Z" style="fill:rgb(209,209,209);"/>
        </g>
    </g>
    <g id="レイヤー21" serif:id="レイヤー2" transform="matrix(-1.21277,-0.41562,-0.41562,1.21277,781.907,-155.456)">
        <g transform="matrix(1.18125,0,0,1.01446,-47.3119,-4.64358)">
            <path d="M229.635,221.866C230.805,217.593 259.08,250.633 265.122,270.094C273.326,296.519 252.37,321.18 241.702,321.18C231.035,321.18 224.183,326.424 221.556,298.912C219.94,281.985 224.354,241.145 229.635,221.866Z" style="fill:rgb(101,55,38);"/>
        </g>
        <g transform="matrix(-0.737897,-0.25288,-0.25288,0.737897,537.655,312.438)">
            <path d="M356.481,114.098C347.51,103.373 341.124,80.666 354.775,63.683C367.494,47.858 408.559,27.666 408.465,32.065C408.04,51.914 399.821,91.452 392.691,106.564C392.086,107.846 391.497,109.041 390.921,110.154C381.403,102.768 371.94,98.24 363.835,101.329C360.663,102.537 358.149,107.362 356.481,114.098Z" style="fill:rgb(209,209,209);"/>
        </g>
    </g>
    <g id="レイヤー3" transform="matrix(1.28201,0,0,1.28201,-80.6452,-264.782)">
        <g transform="matrix(1.17982,0,0,1.25893,-25.8104,-102.068)">
            <path d="M121.496,350.896C144.534,343.033 203.406,341.881 202.672,356.577C202.213,365.773 140.319,384.885 120.35,393.118C109.171,397.726 99.462,384.492 99.462,372.544C99.462,360.596 109.987,354.825 121.496,350.896Z" style="fill:rgb(101,55,38);"/>
        </g>
        <g transform="matrix(1.02885,0,0,1.0152,-4.67237,-12.6615)">
            <path d="M121.496,350.896C144.534,343.033 203.406,341.881 202.672,356.577C202.213,365.773 140.319,384.885 120.35,393.118C109.171,397.726 99.462,384.492 99.462,372.544C99.462,360.596 109.987,354.825 121.496,350.896Z" style="fill:white;"/>
        </g>
        <path d="M202.773,345.88C249.379,346.472 318.174,368.695 318.261,378.889C318.407,395.963 220.936,443.12 171.137,412.435C144.895,396.265 129.085,393.561 120.668,385.826C142.653,377.169 203.385,358.453 203.847,349.337C203.911,348.07 203.533,346.919 202.773,345.88Z" style="fill:rgb(101,55,38);"/>
        <g transform="matrix(1.095,0,0,-1.17637,38.4545,823.014)">
            <path d="M126.279,352.045C166.027,329.247 243.826,364.284 243.71,376.969C243.625,386.174 162.535,408.58 130.686,399.293C119.019,395.89 79.561,402.732 79.715,390.782C80.051,364.59 92.043,371.682 126.279,352.045Z" style="fill:white;"/>
        </g>
    </g>
    <g id="レイヤー5" transform="matrix(1.28201,0,0,1.28201,-80.6452,-264.782)">
        <path d="M232.502,465.055C223.527,452.625 218.391,438.213 218.391,422.852C218.391,421.43 218.435,420.016 218.523,418.611C221.705,419.553 225.19,420.072 228.841,420.072C232.138,420.072 235.299,419.649 238.226,418.872C236.079,433.171 234.181,448.667 232.502,465.055ZM390.185,356.143C414.983,371.661 430.93,395.783 430.93,422.852C430.93,436.997 426.576,450.337 418.878,462.066C412.528,419.694 403.278,383.209 390.185,356.143ZM249.979,362.58C247.998,369.163 246.146,376.488 244.414,384.464C240.867,382.675 236.7,381.479 232.193,381.08C237.043,374.271 243.042,368.048 249.979,362.58Z" style="fill:rgb(101,55,38);"/>
        <g transform="matrix(0.370611,-0.115989,0.269463,0.860992,24.4187,94.0354)">
            <rect x="208.015" y="404.932" width="49.831" height="55.57" style="fill:rgb(101,55,38);"/>
        </g>
        <g transform="matrix(1.09277,0,0,1.0126,-37.7509,-61.7119)">
            <ellipse cx="331.645" cy="478.534" rx="92.113" ry="79.277" style="fill:white;"/>
        </g>
        <g transform="matrix(0.320968,-0.100453,0.286281,0.914728,34.1258,64.4919)">
            <rect x="208.015" y="404.932" width="49.831" height="55.57" style="fill:white;"/>
        </g>
    </g>
    <g id="レイヤー1" transform="matrix(1.34364,0,0,1.34364,-98.4396,-286.051)">
        <g transform="matrix(0.954129,0,0,0.954129,13.2434,15.8293)">
            <path d="M218.603,397.456C203.951,381.568 195.128,361.098 195.128,338.77C195.128,318.846 202.153,300.402 214.072,285.376C213.918,290.535 214.01,295.072 214.401,298.59C217.504,326.5 225.598,321.18 238.199,321.18C250.8,321.18 275.554,296.163 265.863,269.356C264.223,264.819 261.196,259.554 257.487,254.186C269.256,249.785 282.148,247.356 295.658,247.356C309.146,247.356 322.017,249.777 333.77,254.165C316.252,276.371 331.482,307.82 343.354,311.889C355.274,315.974 361.207,323.63 373.19,298.234C374.685,295.066 376.225,290.861 377.735,286.002C389.357,300.916 396.187,319.123 396.187,338.77C396.187,342.15 395.985,345.488 395.59,348.778C377.64,331.939 350.319,321.18 319.742,321.18C284.13,321.18 252.937,335.773 235.815,357.57C234.041,356.004 232.068,355.13 229.989,355.13C222.279,355.13 216.021,367.141 216.021,381.934C216.021,387.716 216.977,393.074 218.603,397.456Z" style="fill:rgb(101,55,38);"/>
        </g>
        <g transform="matrix(1.566,0,0,1.25396,-213.321,-62.7804)">
            <ellipse cx="324.815" cy="320.456" rx="57.019" ry="64.751" style="fill:white;"/>
        </g>
        <g transform="matrix(0.744245,0,0,0.744245,73.2632,212.892)">
            <path d="M178.822,178.571C178.552,175.588 178.414,172.57 178.414,169.524C178.414,109.311 232.174,60.426 298.391,60.426C347.676,60.426 390.06,87.508 408.513,126.185C393.756,111.397 377.004,96.311 363.835,101.329C353.878,105.122 350.393,144.573 359.272,166.863C359.799,168.186 360.403,169.551 361.077,170.947C352.594,179.22 342.433,184.133 331.428,184.395C302.653,185.08 278.136,153.729 273.834,112.698C271.08,109.361 268.141,107.57 265.119,107.642C260.91,107.742 257.033,111.446 253.723,117.885C239.821,160.353 208.733,188.297 183.592,180.527C181.936,180.015 180.346,179.361 178.822,178.571Z" style="fill:rgb(209,209,209);"/>
        </g>
    </g>
    <g id="レイヤー4" transform="matrix(1.28201,0,0,1.28201,-80.6452,-264.782)">
        <path d="M372.625,413.527C370.22,407.739 368.806,401.691 368.806,395.707C368.806,368.76 368.722,337.914 387.284,337.914C405.846,337.914 436.688,363.502 436.688,390.449C436.688,414.868 434.979,444.648 420.844,450.02C423.091,446.561 424.346,442.706 424.346,438.642C424.346,423.724 407.431,411.612 386.595,411.612C381.662,411.612 376.948,412.291 372.625,413.527Z" style="fill:rgb(101,55,38);"/>
        <g transform="matrix(0.996744,0,1.65991e-16,0.858975,-0.889787,55.3449)">
            <path d="M391.714,338.591C407.609,338.591 434.019,364.018 434.019,390.794C434.019,417.57 432.237,450.832 416.342,450.832C400.447,450.832 375.891,422.794 375.891,396.018C375.891,369.242 375.819,338.591 391.714,338.591Z" style="fill:white;"/>
        </g>
        <path d="M374.025,377.839C362.733,367.433 348.251,349.509 343.147,336.694C336.221,319.307 338.939,288.535 346.706,285.576C359.366,280.752 376.271,299.748 389.278,312.772C398.152,321.658 403.966,337.11 405.873,351.663C400.154,348.206 394.366,346.186 389.549,346.186C377.728,346.186 374.766,360.842 374.025,377.839Z" style="fill:rgb(101,55,38);"/>
        <g transform="matrix(0.907647,-0.361527,0.355454,0.892401,-80.9163,166.234)">
            <path d="M362.464,289.67C373.658,289.85 380.827,311.032 386.829,326.019C397.173,351.847 379.719,405.765 360.779,384.301C354.48,377.163 344.102,347.172 344.102,330.587C344.102,314.002 355.598,289.559 362.464,289.67Z" style="fill:white;"/>
        </g>
    </g>
    <g id="レイヤー7">
        <g transform="matrix(1,0,0,1,-3.62411,-2.65767)">
            <ellipse cx="226.287" cy="143.372" rx="5.195" ry="13.168" style="fill:rgb(101,55,38);"/>
        </g>
        <g transform="matrix(1,0,0,1,68.6163,-2.17446)">
            <ellipse cx="226.287" cy="143.372" rx="5.195" ry="13.168" style="fill:rgb(101,55,38);"/>
        </g>
        <g transform="matrix(0.858896,0,0,0.858896,35.6199,25.0509)">
            <circle cx="258.858" cy="165.121" r="9.845" style="fill:rgb(101,55,38);"/>
        </g>
        <g transform="matrix(1.05258,0,0,1.01786,-12.2453,-3.48243)">
            <path d="M257.242,160.326C257.836,164.772 257.31,170.408 255.517,176.241C251.844,188.19 244.235,196.469 238.537,194.717C233.563,193.188 231.678,184.52 233.722,174.395C233.105,182.247 234.746,188.204 238.387,189.323C243.711,190.96 251.308,181.638 255.341,168.518C256.206,165.704 256.837,162.943 257.242,160.326Z" style="fill:rgb(101,55,38);"/>
        </g>
        <g transform="matrix(-0.959583,0.418302,0.432568,0.927938,431.135,-88.0267)">
            <path d="M257.242,160.326C257.836,164.772 257.31,170.408 255.517,176.241C251.844,188.19 244.235,196.469 238.537,194.717C233.563,193.188 231.678,184.52 233.722,174.395C233.105,182.247 234.746,188.204 238.387,189.323C243.711,190.96 251.308,181.638 255.341,168.518C256.206,165.704 256.837,162.943 257.242,160.326Z" style="fill:rgb(101,55,38);"/>
        </g>
    </g>
</svg>
