<?xml version="1.0" encoding="UTF-8" standalone="no"?>
<!DOCTYPE svg PUBLIC "-//W3C//DTD SVG 1.1//EN" "http://www.w3.org/Graphics/SVG/1.1/DTD/svg11.dtd">
<svg width="100%" height="100%" viewBox="0 0 3000 800" version="1.1" xmlns="http://www.w3.org/2000/svg" xmlns:xlink="http://www.w3.org/1999/xlink" xml:space="preserve" xmlns:serif="http://www.serif.com/" style="fill-rule:evenodd;clip-rule:evenodd;stroke-linejoin:round;stroke-miterlimit:2;">
    <g id="レイヤー9" transform="matrix(1.02425,0,0,1.08134,-9.07817,18.3443)">
        <g transform="matrix(1.35019,0,0,1.05451,7.53364,27.654)">
            <path d="M194.947,16.56C227.505,40.014 271.66,130.005 271.66,193.941C271.66,257.876 225.696,291.506 190.254,291.506C154.812,291.506 113.951,228.293 117.846,164.476C122.995,80.082 179.879,5.704 194.947,16.56Z" style="fill:rgb(97,65,44);"/>
        </g>
        <g transform="matrix(-1.35019,0,0,1.05451,789.942,27.654)">
            <path d="M194.947,16.56C227.505,40.014 271.66,130.005 271.66,193.941C271.66,257.876 225.696,291.506 190.254,291.506C154.812,291.506 113.951,228.293 117.846,164.476C122.995,80.082 179.879,5.704 194.947,16.56Z" style="fill:rgb(97,65,44);"/>
        </g>
        <g transform="matrix(1.192,0,0,1.00273,38.3011,42.7464)">
            <path d="M194.947,16.56C227.505,40.014 271.66,130.005 271.66,193.941C271.66,257.876 225.696,291.506 190.254,291.506C154.812,291.506 113.951,228.293 117.846,164.476C122.995,80.082 179.879,5.704 194.947,16.56Z" style="fill:rgb(249,212,160);"/>
        </g>
        <g transform="matrix(-1.192,0,0,1.00273,759.174,42.7464)">
            <path d="M194.947,16.56C227.505,40.014 271.66,130.005 271.66,193.941C271.66,257.876 225.696,291.506 190.254,291.506C154.812,291.506 113.951,228.293 117.846,164.476C122.995,80.082 179.879,5.704 194.947,16.56Z" style="fill:rgb(249,212,160);"/>
        </g>
    </g>
    <g id="レイヤー10" transform="matrix(0.892237,0,0,0.897331,56.5273,64.9545)">
        <g transform="matrix(1.2514,0,0,1.2043,-258.739,-112.437)">
            <ellipse cx="729.043" cy="551.14" rx="103.11" ry="105.544" style="fill:rgb(97,65,44);"/>
        </g>
        <g transform="matrix(1.11567,0,0,1.07368,-159.788,-40.4476)">
            <ellipse cx="729.043" cy="551.14" rx="103.11" ry="105.544" style="fill:rgb(249,212,160);"/>
        </g>
        <g transform="matrix(1.12078,0,0,1.11442,-63.3546,-72.3864)">
            <path d="M639.751,477.23C640.374,487.963 644.987,497.774 652.307,505.529C649.421,513.469 647.912,522.063 648.066,531.012C648.542,558.85 664.977,582.701 688.49,593.986C652.397,591.127 623.664,561.208 623.031,524.268C622.724,506.385 629.056,489.92 639.751,477.23Z" style="fill:rgb(97,65,44);"/>
        </g>
    </g>
    <g id="レイヤー1" transform="matrix(1,0,0,1,-5.68434e-14,45.5962)">
        <g>
            <g transform="matrix(1.37643,0,0,1.37643,-187.995,-85.3657)">
                <circle cx="427.189" cy="352.627" r="209.585" style="fill:rgb(97,65,44);"/>
            </g>
            <path d="M210.847,182.474C210.583,180.394 210.448,178.277 210.448,176.129C210.448,148.482 232.893,126.037 260.54,126.037C270.609,126.037 279.988,129.014 287.843,134.135C287.152,134.418 286.463,134.705 285.776,134.994C284.456,136.57 283.66,138.601 283.66,140.816C283.66,145.825 287.727,149.892 292.736,149.892C295.929,149.892 298.738,148.24 300.357,145.745C306.802,154.175 310.632,164.708 310.632,176.129C310.632,203.776 288.187,226.221 260.54,226.221C240.629,226.221 223.416,214.579 215.341,197.734C219.842,197.669 223.476,193.995 223.476,189.478C223.476,184.921 219.776,181.221 215.219,181.221C213.614,181.221 212.115,181.68 210.847,182.474Z" style="fill:rgb(249,212,160);"/>
            <g transform="matrix(-1,0,0,1,800.365,0)">
                <path d="M210.847,182.474C210.583,180.394 210.448,178.277 210.448,176.129C210.448,148.482 232.893,126.037 260.54,126.037C270.609,126.037 279.988,129.014 287.843,134.135C287.152,134.418 286.463,134.705 285.776,134.994C284.456,136.57 283.66,138.601 283.66,140.816C283.66,145.825 287.727,149.892 292.736,149.892C295.929,149.892 298.738,148.24 300.357,145.745C306.802,154.175 310.632,164.708 310.632,176.129C310.632,203.776 288.187,226.221 260.54,226.221C240.629,226.221 223.416,214.579 215.341,197.734C219.842,197.669 223.476,193.995 223.476,189.478C223.476,184.921 219.776,181.221 215.219,181.221C213.614,181.221 212.115,181.68 210.847,182.474Z" style="fill:rgb(249,212,160);"/>
            </g>
            <g transform="matrix(1.30717,0,0,1.30717,-158.408,-60.9424)">
                <circle cx="427.189" cy="352.627" r="209.585" style="fill:rgb(249,212,160);"/>
            </g>
            <g transform="matrix(0.796342,0,0,0.957509,59.8117,108.583)">
                <circle cx="427.189" cy="352.627" r="209.585" style="fill:white;"/>
            </g>
        </g>
    </g>
    <g id="レイヤー2" transform="matrix(1,0,0,1,-5.68434e-14,45.5962)">
        <g>
            <g transform="matrix(1,0,0,1,18.4332,0)">
                <ellipse cx="320.092" cy="249.539" rx="15.484" ry="17.373" style="fill:rgb(97,65,44);"/>
            </g>
            <g transform="matrix(1,0,0,1,141.843,0)">
                <ellipse cx="320.092" cy="249.539" rx="15.484" ry="17.373" style="fill:rgb(97,65,44);"/>
            </g>
            <g transform="matrix(0.5,0,0,0.5,178.479,116.083)">
                <ellipse cx="320.092" cy="249.539" rx="15.484" ry="17.373" style="fill:white;"/>
            </g>
            <g transform="matrix(0.5,0,0,0.5,301.889,116.083)">
                <ellipse cx="320.092" cy="249.539" rx="15.484" ry="17.373" style="fill:white;"/>
            </g>
        </g>
    </g>
    <g id="レイヤー3" transform="matrix(1,0,0,1,-5.68434e-14,45.5962)">
        <g>
            <g transform="matrix(1.03038,0,0,0.982554,-12.0183,5.0856)">
                <path d="M399.144,291.506C402.321,299.34 409.87,304.856 418.668,304.856C421.429,304.856 424.066,304.313 426.483,303.326C428.88,308.373 430.98,313.88 432.671,319.724C441.19,349.167 436.1,376.051 421.313,379.722C406.525,383.392 387.603,362.469 379.084,333.026C375.88,321.952 374.601,311.239 375.039,301.988C377.077,302.69 379.289,303.075 381.6,303.075C389.819,303.075 396.786,298.21 399.144,291.506Z" style="fill:rgb(97,65,44);"/>
            </g>
            <g transform="matrix(1.3477,0,0,1.29295,-138.527,-87.5145)">
                <path d="M399.539,290.187C399.744,290.203 399.949,290.216 400.156,290.225C400.298,296.57 406.79,301.687 414.766,301.687L414.78,301.687C417.004,305.945 418.93,310.868 420.365,316.224C425.496,335.368 422.431,352.848 413.525,355.235C404.619,357.622 393.223,344.017 388.093,324.873C386.037,317.204 385.297,309.802 385.721,303.532C393.488,303.261 399.69,298.139 399.69,291.868C399.69,291.297 399.638,290.736 399.539,290.187Z" style="fill:rgb(225,105,134);"/>
            </g>
            <path d="M412.901,347.522C408.596,344.499 403.483,333.337 400.432,319.483C396.706,302.568 397.455,288.003 402.104,286.979C403.28,286.72 404.595,287.353 405.962,288.717C405.808,288.72 405.656,288.737 405.507,288.768C400.848,289.745 399.951,304.301 403.506,321.253C404.946,328.124 406.899,334.34 409.022,339.24C409.676,342.54 411.054,345.42 412.901,347.522Z" style="fill:rgb(196,67,98);"/>
            <g transform="matrix(1,0,0,0.872679,79.9078,64.306)">
                <ellipse cx="320.092" cy="249.539" rx="15.484" ry="17.373" style="fill:rgb(97,65,44);"/>
            </g>
            <path d="M362.252,286.448C364.268,292.628 371.971,297.235 381.154,297.235C390.338,297.235 398.041,292.628 400.056,286.448C400.393,287.561 400.571,288.721 400.571,289.913C400.571,298.251 391.87,305.021 381.154,305.021C370.438,305.021 361.738,298.251 361.738,289.913C361.738,288.721 361.916,287.561 362.252,286.448Z" style="fill:rgb(97,65,44);"/>
            <g transform="matrix(1,0,0,1,38.8323,0)">
                <path d="M362.252,286.448C364.268,292.628 371.971,297.235 381.154,297.235C390.338,297.235 398.041,292.628 400.056,286.448C400.393,287.561 400.571,288.721 400.571,289.913C400.571,298.251 391.87,305.021 381.154,305.021C370.438,305.021 361.738,298.251 361.738,289.913C361.738,288.721 361.916,287.561 362.252,286.448Z" style="fill:rgb(97,65,44);"/>
            </g>
        </g>
    </g>
    <g id="レイヤー4" transform="matrix(1,0,0,1,-5.68434e-14,45.5962)">
        <g transform="matrix(1,0,0,1,19.3474,-9.99363)">
            <ellipse cx="256.905" cy="307.229" rx="23.502" ry="9.994" style="fill:rgb(245,183,141);"/>
        </g>
        <g transform="matrix(1,0,0,1,265.28,-9.99363)">
            <ellipse cx="256.905" cy="307.229" rx="23.502" ry="9.994" style="fill:rgb(245,183,141);"/>
        </g>
    </g>
    <g id="レイヤー5" transform="matrix(1,0,0,1,-5.68434e-14,45.5962)">
        <g transform="matrix(0.839251,-0.484542,0.418891,0.725541,-202.061,334.315)">
            <ellipse cx="318.13" cy="450.791" rx="40.818" ry="50.791" style="fill:rgb(97,65,44);"/>
        </g>
        <g transform="matrix(0.696195,-0.401948,0.347488,0.601867,-123.198,364.569)">
            <ellipse cx="318.13" cy="450.791" rx="40.818" ry="50.791" style="fill:rgb(255,226,183);"/>
        </g>
        <g transform="matrix(0.973491,-0.228725,0.228725,0.973491,-203.995,103.522)">
            <circle cx="334.163" cy="505.578" r="7.998" style="fill:rgb(97,65,44);"/>
        </g>
        <g transform="matrix(0.973491,-0.228725,0.228725,0.973491,-205.831,83.5564)">
            <circle cx="334.163" cy="505.578" r="7.998" style="fill:rgb(97,65,44);"/>
        </g>
        <g transform="matrix(0.973491,-0.228725,0.228725,0.973491,-192.089,72.112)">
            <circle cx="334.163" cy="505.578" r="7.998" style="fill:rgb(97,65,44);"/>
        </g>
        <g transform="matrix(0.973491,-0.228725,0.228725,0.973491,-171.876,75.5785)">
            <circle cx="334.163" cy="505.578" r="7.998" style="fill:rgb(97,65,44);"/>
        </g>
        <g transform="matrix(1.86883,0,0,1.86883,-360.695,-425.575)">
            <circle cx="334.163" cy="505.578" r="7.998" style="fill:rgb(97,65,44);"/>
        </g>
    </g>
    <g id="レイヤー6" transform="matrix(-1,0,0,1,800.276,44.8828)">
        <g transform="matrix(0.846268,-0.488593,0.422394,0.731607,-204.874,333.482)">
            <ellipse cx="318.13" cy="450.791" rx="40.818" ry="50.791" style="fill:rgb(97,65,44);"/>
        </g>
        <g transform="matrix(0.696195,-0.401948,0.347488,0.601867,-123.198,364.569)">
            <ellipse cx="318.13" cy="450.791" rx="40.818" ry="50.791" style="fill:rgb(255,226,183);"/>
        </g>
        <g transform="matrix(0.973491,-0.228725,0.228725,0.973491,-203.995,103.522)">
            <circle cx="334.163" cy="505.578" r="7.998" style="fill:rgb(97,65,44);"/>
        </g>
        <g transform="matrix(0.973491,-0.228725,0.228725,0.973491,-205.831,83.5564)">
            <circle cx="334.163" cy="505.578" r="7.998" style="fill:rgb(97,65,44);"/>
        </g>
        <g transform="matrix(0.973491,-0.228725,0.228725,0.973491,-192.089,72.112)">
            <circle cx="334.163" cy="505.578" r="7.998" style="fill:rgb(97,65,44);"/>
        </g>
        <g transform="matrix(0.973491,-0.228725,0.228725,0.973491,-171.876,75.5785)">
            <circle cx="334.163" cy="505.578" r="7.998" style="fill:rgb(97,65,44);"/>
        </g>
        <g transform="matrix(1.86883,0,0,1.86883,-360.695,-425.575)">
            <circle cx="334.163" cy="505.578" r="7.998" style="fill:rgb(97,65,44);"/>
        </g>
    </g>
    <g id="レイヤー7" transform="matrix(1.08545,0,0,1.1774,-27.5787,-22.7051)">
        <g transform="matrix(1,0,0,1,-25.5942,0)">
            <ellipse cx="248.896" cy="413.27" rx="29.218" ry="28.262" style="fill:rgb(97,65,44);"/>
        </g>
        <g transform="matrix(0.912446,0,0,0.839712,-13.6088,66.2423)">
            <ellipse cx="248.896" cy="413.27" rx="29.218" ry="28.262" style="fill:rgb(249,212,160);"/>
        </g>
    </g>
    <g id="レイヤー8" transform="matrix(-1.08545,0,0,1.1774,827.579,-22.7051)">
        <g transform="matrix(1,0,0,1,-25.5942,0)">
            <ellipse cx="248.896" cy="413.27" rx="29.218" ry="28.262" style="fill:rgb(97,65,44);"/>
        </g>
        <g transform="matrix(0.912446,0,0,0.839712,-13.6088,66.2423)">
            <ellipse cx="248.896" cy="413.27" rx="29.218" ry="28.262" style="fill:rgb(249,212,160);"/>
        </g>
    </g>
    <g transform="matrix(1.10586,0,0,1.10586,-117.701,78.7445)">
        <g id="レイヤー11">
            <g>
                <text x="956.676px" y="257.948px" style="font-family:'Impact', sans-serif;font-stretch:condensed;font-size:288px;fill:rgb(33,32,42);">R.M</text>
                <text x="956.676px" y="545.948px" style="font-family:'Impact', sans-serif;font-stretch:condensed;font-size:288px;fill:rgb(33,32,42);">Por<tspan x="1356.75px 1444.5px " y="545.948px 545.948px ">tf</tspan>olioSite</text>
            </g>
        </g>
    </g>
</svg>
